<svg width="354" height="355" viewBox="0 0 354 355" fill="none" xmlns="http://www.w3.org/2000/svg">
<g clip-path="url(#clip0_517_186)">
<path d="M178.661 355C81.8237 355 3.32172 349.307 3.32172 342.284C3.32172 335.261 81.8237 329.568 178.661 329.568C275.498 329.568 354 335.261 354 342.284C354 349.307 275.498 355 178.661 355Z" fill="#35343D"/>
<path d="M175.722 203.468H181.6V207.177H175.722V203.468Z" fill="#35343D"/>
<path d="M163.968 203.468H169.845V207.177H163.968V203.468Z" fill="#35343D"/>
<path d="M152.213 203.468H158.09V207.177H152.213V203.468Z" fill="#35343D"/>
<path d="M140.458 203.468H146.336V207.177H140.458V203.468Z" fill="#35343D"/>
<path d="M128.704 203.468H134.581V207.177H128.704V203.468Z" fill="#35343D"/>
<path d="M116.949 203.468H122.827V207.177H116.949V203.468Z" fill="#35343D"/>
<path d="M105.195 203.468H111.072V207.177H105.195V203.468Z" fill="#35343D"/>
<path d="M93.4401 203.468H99.3174V207.177H93.4401V203.468Z" fill="#35343D"/>
<path d="M81.6857 203.468H87.563V207.177H81.6857V203.468Z" fill="#35343D"/>
<path d="M69.9311 203.468H75.8083V207.177H69.9311V203.468Z" fill="#35343D"/>
<path d="M58.1764 203.468H64.0537V207.177H58.1764V203.468Z" fill="#35343D"/>
<path d="M44.7077 205.852C44.7077 226.087 52.1383 245.493 65.3648 259.801C78.5912 274.11 96.5302 282.148 115.235 282.148C133.94 282.148 151.879 274.11 165.106 259.801C178.332 245.493 185.763 226.087 185.763 205.852H44.7077Z" fill="#35343D"/>
<path d="M48.1164 206.34L92.9797 61.6742C84.1994 58.4805 74.9231 57.1907 65.6816 57.8784C56.44 58.5661 47.4144 61.2179 39.121 65.6821C30.8275 70.1463 23.4289 76.3354 17.3484 83.8953C11.2678 91.4553 6.62454 100.238 3.68411 109.741C3.20903 111.272 2.77803 112.814 2.396 114.355C-2.22193 133.102 -0.0648422 153.048 8.42847 170.136C16.9218 187.223 31.1134 200.169 48.1164 206.34Z" fill="#35343D"/>
<path d="M46.4219 217.773C41.553 217.773 37.6059 213.504 37.6059 208.236C37.6059 202.969 41.553 198.699 46.4219 198.699C51.2908 198.699 55.2378 202.969 55.2378 208.236C55.2378 213.504 51.2908 217.773 46.4219 217.773Z" fill="#35343D"/>
<path d="M136.05 225.721C136.7 225.721 137.323 226 137.782 226.497C138.241 226.994 138.499 227.668 138.499 228.37C138.499 229.073 138.241 229.747 137.782 230.243C137.323 230.74 136.7 231.019 136.05 231.019H93.9298C93.2803 231.019 92.6575 230.74 92.1982 230.243C91.739 229.747 91.481 229.073 91.481 228.37C91.481 227.668 91.739 226.994 92.1982 226.497C92.6575 226 93.2803 225.721 93.9298 225.721H136.05Z" fill="#A62940"/>
<path d="M56.707 343.873L65.4769 344.224L97.0723 270.718L89.0782 266.697L56.707 343.873Z" fill="#35343D"/>
<path d="M173.763 343.873L164.993 344.224L133.398 270.718L141.392 266.697L173.763 343.873Z" fill="#35343D"/>
<path d="M78.7468 301.487H151.233V306.785H78.7468V301.487Z" fill="#35343D"/>
<path d="M91.1866 58.9733C91.531 58.9734 91.8706 59.0609 92.1781 59.2287C92.4857 59.3965 92.7526 59.6398 92.9574 59.9393C93.1623 60.2388 93.2995 60.5861 93.3579 60.9533C93.4164 61.3204 93.3945 61.6973 93.294 62.0537L91.4358 68.6417C91.2647 69.246 90.8789 69.7521 90.3631 70.0489C89.8473 70.3456 89.2437 70.4087 88.6849 70.2243C88.1261 70.0399 87.6579 69.6231 87.383 69.0654C87.1082 68.5077 87.0492 67.8548 87.2191 67.2501L89.0773 60.6621C89.2158 60.1737 89.4954 59.7461 89.875 59.4421C90.2546 59.1382 90.7143 58.9738 91.1866 58.9733Z" fill="#A62940"/>
<path d="M188.701 207.177C189.286 207.177 189.846 207.428 190.26 207.875C190.673 208.322 190.905 208.929 190.905 209.561C190.905 210.193 190.673 210.8 190.26 211.247C189.846 211.694 189.286 211.945 188.701 211.945H182.334C181.75 211.945 181.189 211.694 180.776 211.247C180.362 210.8 180.13 210.193 180.13 209.561C180.13 208.929 180.362 208.322 180.776 207.875C181.189 207.428 181.75 207.177 182.334 207.177H188.701Z" fill="#A62940"/>
<path d="M136.051 189.692H162.498C162.665 189.692 162.827 189.698 162.988 189.713C164.716 189.847 166.333 190.683 167.514 192.054C168.696 193.425 169.353 195.228 169.355 197.103C169.357 198.977 168.703 200.782 167.525 202.155C166.346 203.529 164.731 204.369 163.003 204.506C162.836 204.522 162.67 204.528 162.498 204.528H136.051C134.232 204.528 132.488 203.746 131.202 202.355C129.916 200.964 129.194 199.077 129.194 197.11C129.194 195.143 129.916 193.256 131.202 191.865C132.488 190.474 134.232 189.692 136.051 189.692Z" fill="#FF6584"/>
<path opacity="0.2" d="M165.163 203.939C160.657 203.314 157.111 197.163 157.111 189.692H158.09C158.09 196.999 161.607 202.938 165.927 202.938V203.531L165.163 203.939Z" fill="#B43434"/>
<path opacity="0.2" d="M155.641 203.998V202.938C151.32 202.938 147.805 196.996 147.805 189.692H146.825C146.825 197.58 150.78 203.998 155.641 203.998Z" fill="#B43434"/>
<path opacity="0.2" d="M145.356 203.998V202.938C141.035 202.938 137.52 196.996 137.52 189.692H136.54C136.54 197.58 140.495 203.998 145.356 203.998Z" fill="#B43434"/>
<path d="M88.0527 189.692H114.501C114.667 189.692 114.829 189.698 114.99 189.713C116.718 189.847 118.335 190.683 119.517 192.054C120.698 193.425 121.356 195.228 121.357 197.103C121.359 198.977 120.705 200.782 119.527 202.155C118.348 203.529 116.733 204.369 115.005 204.506C114.839 204.522 114.672 204.528 114.501 204.528H88.0527C86.2342 204.528 84.4901 203.746 83.2042 202.355C81.9183 200.964 81.1959 199.077 81.1959 197.11C81.1959 195.143 81.9183 193.256 83.2042 191.865C84.4901 190.474 86.2342 189.692 88.0527 189.692Z" fill="#FF6584"/>
<path opacity="0.2" d="M117.165 203.939C112.659 203.314 109.113 197.163 109.113 189.692H110.093C110.093 196.999 113.609 202.938 117.929 202.938V203.531L117.165 203.939Z" fill="#B43434"/>
<path opacity="0.2" d="M107.644 203.998V202.938C103.323 202.938 99.8072 196.996 99.8072 189.692H98.8276C98.8276 197.58 102.782 203.998 107.644 203.998Z" fill="#B43434"/>
<path opacity="0.2" d="M97.3584 203.998V202.938C93.0375 202.938 89.522 196.996 89.522 189.692H88.5425C88.5425 197.58 92.4972 203.998 97.3584 203.998Z" fill="#B43434"/>
<path d="M137.986 118.46C141.452 116.434 145.737 118.643 147.465 122.229C149.566 126.591 147.824 131.834 145.374 135.562C142.829 139.436 139.373 142.633 137.674 147.11C136.048 151.323 135.855 156.023 137.13 160.375C138.404 164.727 141.063 168.45 144.635 170.882C146.229 171.973 144.756 174.725 143.152 173.627C139.649 171.26 136.878 167.817 135.192 163.738C133.506 159.659 132.982 155.129 133.687 150.727C134.044 148.444 134.726 146.234 135.709 144.177C136.774 142.077 138.057 140.116 139.533 138.33C142.082 135.066 145.292 131.468 145.452 126.927C145.481 126.338 145.443 125.747 145.339 125.168C145.262 124.763 145.149 124.368 144.999 123.988C144.643 123.172 144.114 122.458 143.456 121.904C142.845 121.377 142.123 121.024 141.354 120.875C140.709 120.771 140.051 120.887 139.469 121.205C137.805 122.177 136.32 119.434 137.986 118.46Z" fill="#E6E6E6"/>
<path d="M93.7676 137.69C95.2435 137.176 96.8205 137.106 98.3305 137.486C99.8405 137.865 101.227 138.681 102.342 139.845C102.919 140.487 103.346 141.268 103.588 142.123C103.831 142.978 103.881 143.884 103.735 144.764C103.455 146.691 102.331 148.402 101.111 149.781C98.7245 152.479 95.3841 154.223 93.383 157.321C92.4955 158.641 91.9386 160.186 91.7665 161.808C91.6636 163.264 91.9105 164.725 92.4833 166.048C93.9763 169.331 96.9399 171.564 100.066 173.001C100.796 173.337 100.957 174.502 100.593 175.176C100.389 175.532 100.067 175.789 99.6927 175.895C99.3186 176.002 98.9211 175.948 98.5823 175.746C92.8306 173.101 87.5089 167.177 89.0953 159.898C89.9299 156.069 92.4876 153.367 95.242 151.018C96.6099 149.933 97.9019 148.74 99.1074 147.449C100.06 146.355 101.049 144.86 100.874 143.377C100.804 142.862 100.571 142.388 100.214 142.038C99.7817 141.61 99.2907 141.257 98.7585 140.991C98.106 140.653 97.3981 140.458 96.6755 140.417C95.953 140.377 95.2302 140.492 94.5488 140.755C94.1732 140.863 93.7733 140.807 93.4353 140.6C93.0973 140.392 92.8481 140.049 92.7414 139.645C92.6458 139.239 92.6993 138.808 92.8906 138.444C93.0819 138.079 93.3962 137.809 93.7676 137.69Z" fill="#E6E6E6"/>
<path d="M116.139 92.4686C117.014 91.6594 118.12 91.1989 119.271 91.1638C120.363 91.186 121.424 91.5572 122.321 92.2308C124.347 93.8231 125.781 96.1465 126.363 98.7817C127.848 104.935 125.911 111.567 123.22 116.986C121.859 119.726 120.275 122.326 118.905 125.06C117.585 127.675 116.571 130.458 115.887 133.344C114.493 139.263 114.369 145.448 115.523 151.426C116.699 157.377 119.173 163.269 123.382 167.375C123.658 167.673 123.812 168.077 123.812 168.499C123.812 168.921 123.658 169.325 123.382 169.623C123.107 169.921 122.733 170.088 122.343 170.088C121.953 170.088 121.58 169.921 121.304 169.623C117.569 165.979 115.07 160.98 113.562 155.84C111.898 150.034 111.412 143.909 112.136 137.881C112.463 134.88 113.095 131.926 114.02 129.074C115.022 126.201 116.273 123.437 117.757 120.82C120.519 115.768 123.46 110.659 123.859 104.643C124.056 101.685 123.714 98.6019 122.023 96.2231C122.115 96.3533 121.948 96.1284 121.948 96.1275C121.845 95.9946 121.739 95.8653 121.629 95.7396C121.419 95.4959 121.193 95.2687 120.953 95.0596C121.004 95.1033 121.134 95.1973 120.898 95.0197C120.78 94.9314 120.66 94.8467 120.536 94.7682C120.436 94.7043 120.333 94.6476 120.23 94.5886C120.169 94.5549 120.107 94.5231 120.044 94.4933C120.187 94.56 120.179 94.5606 120.02 94.4952C119.905 94.4563 119.336 94.3232 119.652 94.3664C119.546 94.3528 119.44 94.3453 119.334 94.3441C119.289 94.3432 118.893 94.3652 119.086 94.3422C119.313 94.3154 118.907 94.3858 118.905 94.3866C118.778 94.4201 118.653 94.4628 118.532 94.5144C118.837 94.3822 118.03 94.8731 118.216 94.7165C117.935 95.0023 117.563 95.1614 117.177 95.1614C116.791 95.1614 116.42 95.0023 116.139 94.7165C115.632 94.168 115.508 92.9985 116.139 92.4686Z" fill="#E6E6E6"/>
<path d="M228.966 331.358L240.044 334.537L260.391 232.798L237.557 230.596L228.966 331.358Z" fill="#FFB9B9"/>
<path d="M279.65 332.921L290.983 334.774L300.942 231.24L278.023 231.748L279.65 332.921Z" fill="#FFB9B9"/>
<path d="M285.485 185.596L284.439 206.727C284.4 207.504 284.517 208.281 284.78 209.005C285.044 209.73 285.449 210.384 285.967 210.924C286.485 211.464 287.104 211.877 287.783 212.135C288.462 212.393 289.184 212.491 289.9 212.42C291.072 212.305 292.168 211.748 292.998 210.847C293.828 209.946 294.339 208.759 294.442 207.491L296.337 184.129L311.258 129.346L310.805 94.1289L293.172 95.1072L285.485 185.596Z" fill="#FFB9B9"/>
<path d="M275.99 237.444C284.823 234.127 295.071 233.475 306.736 235.488C305.082 214.289 304.124 194.604 304.927 178.749H244.792L275.99 237.444Z" fill="#2F2E41"/>
<path d="M233.94 236.955C243.044 242.165 256.213 244.659 271.468 245.76L290.459 180.216L243.887 179.238L233.94 236.955Z" fill="#2F2E41"/>
<path d="M210.497 341.994L243.258 343.306C247.455 343.474 247.676 339.575 246.884 335.114L243.005 323.133C234.273 332.388 233.451 332.905 229.707 319.74L218.283 329.502L209.826 331.07C208.642 331.29 207.568 331.956 206.794 332.95C206.02 333.944 205.597 335.203 205.598 336.503C205.6 337.925 206.112 339.292 207.025 340.316C207.939 341.34 209.183 341.941 210.497 341.994Z" fill="#2F2E41"/>
<path d="M260.116 341.994L292.877 343.306C297.074 343.474 297.295 339.575 296.503 335.114L292.624 323.133C283.892 332.388 283.069 332.905 279.326 319.74L267.901 329.502L259.445 331.07C258.26 331.29 257.186 331.956 256.412 332.95C255.639 333.944 255.215 335.203 255.217 336.503C255.219 337.925 255.73 339.292 256.644 340.316C257.557 341.34 258.802 341.941 260.116 341.994Z" fill="#2F2E41"/>
<path d="M252.478 42.281C242.739 42.281 234.844 33.7403 234.844 23.2049C234.844 12.6695 242.739 4.12878 252.478 4.12878C262.217 4.12878 270.112 12.6695 270.112 23.2049C270.112 33.7403 262.217 42.281 252.478 42.281Z" fill="#FFB9B9"/>
<path d="M261.521 56.9549L282.32 50.1073L268.303 27.6069L252.478 34.9441L261.521 56.9549Z" fill="#FFB9B9"/>
<path d="M242.079 184.618C263.46 189.819 287.195 187.755 307.64 181.683C302.744 152.148 305.108 120.423 309.901 94.6181C313.653 74.4204 303.756 57.4718 287.294 49.1289C283.755 47.7562 280.074 46.8595 276.333 46.459C264.785 45.3521 254.624 54.7191 253.42 67.1926L242.079 184.618Z" fill="#A62940"/>
<path d="M297.693 104.401L312.614 102.444L308.092 77.0095H297.693V104.401Z" fill="#A62940"/>
<path d="M252.725 26.2255L255.426 24.9267C256.038 24.6333 256.702 24.4874 257.372 24.4991C258.041 24.5108 258.7 24.6798 259.303 24.9945C259.906 25.3092 260.438 25.7619 260.864 26.3213C261.289 26.8808 261.596 27.5336 261.765 28.2344L265.53 35.593L274.907 33.9874L274.579 18.41C274.152 15.4663 273.171 12.6487 271.697 10.1316C270.223 7.61455 268.287 5.45154 266.009 3.77649C263.731 2.10144 261.16 0.949987 258.454 0.393394C255.748 -0.163199 252.965 -0.113083 250.278 0.540639L250.022 0.603275C245.444 1.72352 239.501 5.35933 236.399 9.176L230.619 16.2872C230.345 16.6245 230.162 17.0367 230.089 17.4789C230.016 17.9211 230.057 18.3764 230.207 18.7953C230.356 19.2142 230.61 19.5807 230.938 19.8549C231.267 20.1291 231.659 20.3006 232.072 20.3507L239.977 21.2943L252.725 26.2255Z" fill="#2F2E41"/>
<path d="M194.235 156.32L204.361 165.928C204.507 166.067 204.699 166.137 204.893 166.123C205.087 166.109 205.268 166.013 205.397 165.854C205.525 165.696 205.59 165.489 205.578 165.279C205.565 165.068 205.476 164.872 205.33 164.733L195.204 155.125L197.142 152.735L207.267 162.343C207.414 162.482 207.605 162.552 207.8 162.538C207.994 162.524 208.175 162.428 208.304 162.269C208.432 162.111 208.497 161.904 208.484 161.694C208.472 161.484 208.383 161.287 208.236 161.148L198.111 151.54L200.048 149.15L210.174 158.758C210.247 158.827 210.331 158.88 210.422 158.914C210.514 158.947 210.61 158.961 210.707 158.954C210.803 158.948 210.897 158.92 210.984 158.874C211.07 158.828 211.148 158.764 211.211 158.685C211.275 158.607 211.324 158.516 211.355 158.417C211.386 158.318 211.398 158.213 211.392 158.109C211.386 158.005 211.36 157.903 211.318 157.809C211.275 157.716 211.216 157.632 211.143 157.563L201.017 147.956L203.44 144.968L217.749 158.546C219.026 159.758 219.88 161.408 220.167 163.22C220.454 165.032 220.157 166.896 219.325 168.499L262.527 209.492L258.651 214.272L215.478 173.306C214.161 174.43 212.522 175.02 210.844 174.974C209.167 174.927 207.558 174.247 206.296 173.05L191.813 159.308L194.235 156.32Z" fill="#E6E6E6"/>
<path d="M243.435 185.596L242.389 206.727C242.35 207.504 242.467 208.281 242.731 209.005C242.994 209.73 243.399 210.384 243.917 210.924C244.435 211.464 245.054 211.877 245.733 212.135C246.412 212.393 247.134 212.491 247.851 212.42C249.022 212.305 250.118 211.748 250.948 210.847C251.779 209.946 252.29 208.759 252.392 207.491L254.287 184.129L269.208 129.346L268.756 94.1289L251.122 95.1072L243.435 185.596Z" fill="#FFB9B9"/>
<path d="M249.765 100.488C255.131 94.9199 262.213 94.7155 270.112 97.0637V70.7768C270.112 67.6299 268.956 64.6119 266.9 62.3868C264.843 60.1616 262.053 58.9115 259.144 58.9115C257.805 58.9115 256.48 59.2011 255.246 59.7632C254.012 60.3253 252.894 61.1486 251.959 62.1848C251.023 63.2209 250.289 64.4489 249.798 65.7965C249.308 67.1442 249.071 68.5844 249.103 70.0323L249.765 100.488Z" fill="#A62940"/>
</g>
<defs>
<clipPath id="clip0_517_186">
<rect width="354" height="355" fill="white" transform="matrix(-1 0 0 1 354 0)"/>
</clipPath>
</defs>
</svg>
